<svg version="1.1" xmlns="http://www.w3.org/2000/svg" xmlns:xlink="http://www.w3.org/1999/xlink" width="17" height="21">
    <symbol id="ready-made-icon" viewBox="0 0 17 21">
        <g fill="none">
            <path fill="#EAEAEA" fill-rule="evenodd" d="M1,0 L12.9521319,0 L16,0 C16.5522847,-1.01453063e-16 17,0.44771525 17,1 L17,20 C17,20.5522847 16.5522847,21 16,21 L1,21 C0.44771525,21 6.76353751e-17,20.5522847 0,20 L-2.22044605e-16,1 C-2.8967998e-16,0.44771525 0.44771525,1.01453063e-16 1,0 Z"></path>
            <path stroke="#858585" stroke-width="1" d="M1,0.5 C0.723857625,0.5 0.5,0.723857625 0.5,1 L0.5,20 C0.5,20.2761424 0.723857625,20.5 1,20.5 L16,20.5 C16.2761424,20.5 16.5,20.2761424 16.5,20 L16.5,1 C16.5,0.723857625 16.2761424,0.5 16,0.5 L1,0.5 Z"></path>
            <rect fill="#858585" x="3" y="3" width="2" height="2"></rect>
            <rect fill="#858585" x="6" y="4" width="8" height="1"></rect>
            <rect fill="#858585" x="6" y="8" width="8" height="1"></rect>
            <rect fill="#858585" x="6" y="12" width="8" height="1"></rect>
            <rect fill="#858585" x="3" y="7" width="2" height="2"></rect>
            <rect fill="#858585" x="3" y="11" width="2" height="2"></rect>
            <rect fill="#858585" x="6" y="16" width="8" height="1"></rect>
            <rect fill="#858585" x="3" y="15" width="2" height="2"></rect>
        </g>
    </symbol>

    <use xlink:href="#ready-made-icon" viewBox="0 0 17 21"></use>
</svg>