<svg version="1.1" xmlns="http://www.w3.org/2000/svg" xmlns:xlink="http://www.w3.org/1999/xlink" width="20" height="12">
	<symbol id="sprite-item-eye" viewBox="0 0 20 12">
		<g stroke="none" stroke-width="1" fill-rule="evenodd">            
			<path d="M9.59207143,3.71635714 C10.7541429,3.71635714 11.6997857,4.67742857 11.6997857,5.85707143 C11.6997857,7.03821429 10.7541429,7.99842857 9.59207143,7.99842857 C8.42978571,7.99842857 7.485,7.03821429 7.485,5.85707143 C7.485,4.67742857 8.42978571,3.71635714 9.59207143,3.71635714 Z M9.59207143,2.565 C7.79528571,2.565 6.33342857,4.04185714 6.33342857,5.85707143 C6.33342857,7.67292857 7.79528571,9.14978571 9.59207143,9.14978571 C11.3892857,9.14978571 12.8511429,7.67271429 12.8511429,5.85707143 C12.8511429,4.04164286 11.3892857,2.565 9.59207143,2.565 Z"></path>
			<path d="M9.64971429,1.32792857 C10.1944286,1.32792857 10.743,1.38728571 11.2776429,1.50364286 C12.8676429,1.84971429 14.5150714,2.71264286 16.1736429,4.06628571 C16.9855714,4.72821429 17.5868571,5.30828571 18.0657857,5.89178571 L18.1026429,5.93207143 C18.1125,5.94214286 18.1202143,5.95821429 18.1242857,5.97664286 L18.1189286,6.04328571 C18.1148571,6.05357143 18.1095,6.06257143 18.1026429,6.06964286 L18.0668571,6.10907143 C17.8879286,6.32785714 17.6839286,6.53785714 17.4934286,6.73307143 C16.3148571,7.9305 15.0649286,8.88 13.7787857,9.55457143 C12.8121429,10.059 11.9247857,10.3812857 11.0635714,10.5400714 C10.5833571,10.6277143 10.1033571,10.6718571 9.62657143,10.6718571 C9.0765,10.6718571 8.53092857,10.6133571 7.99392857,10.4959286 C6.4035,10.1498571 4.75607143,9.28757143 3.0975,7.93371429 C2.28728571,7.27371429 1.68685714,6.6945 1.20492857,6.10907143 C1.1355,6.02464286 1.1355,5.976 1.20557143,5.89092857 C1.37078571,5.68864286 1.55464286,5.49514286 1.77964286,5.26714286 C2.95457143,4.07142857 4.20407143,3.12214286 5.49342857,2.4465 C6.46135714,1.94078571 7.3485,1.6185 8.20842857,1.46164286 C8.69057143,1.37314286 9.17507143,1.32792857 9.64971429,1.32792857 Z M9.64971429,0.176571429 C9.10714286,0.176571429 8.55278571,0.227785714 8.00078571,0.328928571 C7.02835714,0.506142857 6.03321429,0.864857143 4.96028571,1.42564286 C3.56442857,2.15742857 2.2185,3.17785714 0.958071429,4.46014286 C0.712285714,4.70914286 0.507642857,4.92492857 0.313285714,5.16278571 C-0.104785714,5.66935714 -0.105214286,6.33 0.316071429,6.84128571 C0.847928571,7.48757143 1.50064286,8.11864286 2.37021429,8.82664286 C4.16957143,10.2955714 5.97942857,11.2362857 7.74857143,11.6213571 C8.3625,11.7552857 8.99442857,11.8234286 9.62614286,11.8234286 C10.1706429,11.8234286 10.7239286,11.7728571 11.2703571,11.673 C12.2468571,11.4932143 13.2411429,11.1340714 14.3112857,10.5754286 C15.7054286,9.84407143 17.0513571,8.82364286 18.3137143,7.5405 C18.5312143,7.3185 18.7405714,7.10121429 18.9366429,6.86378571 L18.9477857,6.85157143 C19.0523571,6.73885714 19.1342143,6.60835714 19.191,6.46285714 L19.2525,6.30514286 L19.2662143,6.1365 L19.2715714,6.06985714 L19.2857143,5.89821429 L19.2488571,5.72978571 C19.2008571,5.51142857 19.0973571,5.31214286 18.9490714,5.15164286 L18.9364286,5.1375 C18.4112143,4.50214286 17.7638571,3.8775 16.9013571,3.174 C15.1007143,1.70421429 13.2908571,0.763285714 11.5225714,0.378428571 C10.9058571,0.2445 10.2760714,0.176571429 9.64971429,0.176571429 Z"></path>
		</g>
	</symbol>
	<use xlink:href="#sprite-item-eye" fill="#014A83" viewBox="0 0 20 12"></use>
</svg>