<svg version="1.1" xmlns="http://www.w3.org/2000/svg" xmlns:xlink="http://www.w3.org/1999/xlink" width="11" height="13">
    <symbol id="filter" viewBox="0 0 11 13">
        <g stroke="none" stroke-width="1" fill-rule="evenodd" transform="translate(-794.000000, -247.000000)">
            <path d="M794.131105,248.27907 L798.016885,253.526904 L798.016885,257.322507 C798.016885,257.487533 798.097503,257.652559 798.242615,257.735072 L800.225814,259.005774 C800.306432,259.055282 800.38705,259.088287 800.483791,259.088287 C800.564409,259.088287 800.645027,259.071785 800.725645,259.022277 C800.886881,258.939764 800.967498,258.774737 800.967498,258.593209 L800.967498,253.526904 L804.853279,248.27907 C804.869402,248.262568 804.869402,248.262568 804.885526,248.246065 C805.014514,248.031531 805.030638,247.767489 804.901649,247.536452 C804.788784,247.321918 804.546931,247.173394 804.305077,247.173394 L794.679306,247.173394 C794.437453,247.173394 794.195599,247.305415 794.082734,247.536452 C793.969869,247.750986 793.969869,248.031531 794.098858,248.246065 C794.114981,248.246065 794.114981,248.262568 794.131105,248.27907 Z M803.708505,248.163552 L800.096826,253.048328 C800.032331,253.130841 800.000084,253.246359 800.000084,253.345375 L800.000084,257.685564 L798.984299,257.041962 L798.984299,253.361878 C798.984299,253.246359 798.952052,253.147343 798.887558,253.06483 L795.259755,248.163552 L803.708505,248.163552 Z" fill-rule="nonzero"></path>
        </g>
    </symbol>

    <use xlink:href="#filter" fill="#444444" viewBox="0 0 11 13"></use>
</svg>