<svg version="1.1" xmlns="http://www.w3.org/2000/svg" xmlns:xlink="http://www.w3.org/1999/xlink" width="20" height="16">
    <symbol id="folder-blue" viewBox="0 0 20 16">
        <g stroke="none" stroke-width="1" fill="none" fill-rule="evenodd" transform="translate(-45.000000, -199.000000)">
            <path fill="#9BB6CA" d="M46,199 L52,199 L55.0295285,202.009995 L64,202.009995 C64.5522847,202.009995 65,202.45771 65,203.009995 L65,214 C65,214.552285 64.5522847,215 64,215 L46,215 C45.4477153,215 45,214.552285 45,214 L45,200 C45,199.447715 45.4477153,199 46,199 Z"></path>
            <path stroke="#02599B" stroke-width="1" d="M51.7938399,199.5 L46,199.5 C45.7238576,199.5 45.5,199.723858 45.5,200 L45.5,214 C45.5,214.276142 45.7238576,214.5 46,214.5 L64,214.5 C64.2761424,214.5 64.5,214.276142 64.5,214 L64.5,203.009995 C64.5,202.733852 64.2761424,202.509995 64,202.509995 L54.8233684,202.509995 L51.7938399,199.5 Z"></path>
        </g>
    </symbol>

    <use xlink:href="#folder-blue" viewBox="0 0 20 16" ></use>
</svg>