<svg version="1.1" xmlns="http://www.w3.org/2000/svg" xmlns:xlink="http://www.w3.org/1999/xlink" width="24" height="16">
    <symbol id="folder-blue-opened" viewBox="0 0 24 16">
        <g stroke="none" stroke-width="1" fill="none" fill-rule="evenodd" transform="translate(-45.000000, -237.000000)">
            <g transform="translate(45.000000, 237.000000)">
                <path fill="#9BB6CA" fill-rule="evenodd" d="M1,0 L6.99999993,0 L10.0295284,3.00999451 L22.6457341,3.00999451 C23.1980189,3.00999451 23.6457341,3.45770976 23.6457341,4.00999451 C23.6457341,4.10975175 23.6308073,4.2089475 23.6014495,4.30428703 L20.2173076,15.2942925 C20.0881353,15.7137799 19.7005172,16 19.2615922,16 L1,16 C0.44771525,16 6.76353751e-17,15.5522847 0,15 L0,1 C-6.76353751e-17,0.44771525 0.44771525,1.01453063e-16 1,0 Z"></path>
                <path stroke="#02599B" stroke-width="1" d="M6.79383983,0.5 L1,0.5 C0.723857625,0.5 0.5,0.723857625 0.5,1 L0.5,15 C0.5,15.2761424 0.723857625,15.5 1,15.5 L19.2615922,15.5 C19.4810547,15.5 19.6748638,15.3568899 19.7394499,15.1471463 L23.1235918,4.15714077 C23.1382707,4.109471 23.1457341,4.05987313 23.1457341,4.00999451 C23.1457341,3.73385213 22.9218765,3.50999451 22.6457341,3.50999451 L9.82336832,3.50999451 L6.79383983,0.5 Z"></path>             <polygon fill="#02599B" points="-2.26663133e-12 0 7 0 11 4 5 4 1 15 -2.26663133e-12 15"></polygon>
            </g>
        </g>
    </symbol>

    <use xlink:href="#folder-blue-opened" viewBox="0 0 24 16" ></use>
</svg>