<svg version="1.1" xmlns="http://www.w3.org/2000/svg" xmlns:xlink="http://www.w3.org/1999/xlink" width="24" height="21">

    <symbol id="help-is-sht" viewBox="0 0 24 21">
        <g stroke="none" stroke-width="1" fill="none" fill-rule="evenodd">
            <path d="M12,19.5 C18.627417,19.5 24,15.0228475 24,9.5 C24,3.9771525 18.627417,0 12,0 C5.372583,0 0,3.9771525 0,9.5 C0,10.9836743 0.806091733,12.8146672 2.4182752,14.9929784 L1.32421613,20.6756677 L7.4979495,18.7700043 C9.43789423,19.2566681 10.9385777,19.5 12,19.5 Z" fill="#FFFFFF"></path>
            <path d="M8.61523438,7.390121 C8.61523438,6.93706918 8.75756628,6.47806303 9.04223437,6.01308878 C9.32690247,5.54811454 9.74223165,5.16302626 10.2882344,4.8578124 C10.8342371,4.55259854 11.4712307,4.3999939 12.1992344,4.3999939 C12.8759044,4.3999939 13.4732318,4.52756184 13.9912344,4.78270155 C14.509237,5.03784127 14.9093996,5.38477838 15.1917344,5.82352331 C15.4740691,6.26226824 15.6152344,6.73915774 15.6152344,7.25420613 C15.6152344,7.65956829 15.5347352,8.01485098 15.3737344,8.32006484 C15.2127336,8.6252787 15.0214021,8.88876015 14.7997344,9.1105171 C14.5780666,9.33227405 14.1802372,9.70544009 13.6062344,10.2300264 C13.4475669,10.3778644 13.3204015,10.5078168 13.2247344,10.6198875 C13.1290672,10.7319582 13.0579013,10.8344894 13.0112344,10.9274843 C12.9645675,11.0204791 12.9284012,11.1134726 12.9027344,11.2064674 C12.8770676,11.2994623 12.838568,11.4627969 12.7872344,11.6964763 C12.6985673,12.1924488 12.4209034,12.4404314 11.9542344,12.4404314 C11.7115665,12.4404314 11.5074019,12.3593602 11.3417344,12.1972153 C11.1760669,12.0350704 11.0932344,11.7942412 11.0932344,11.4747205 C11.0932344,11.0741273 11.1539004,10.7271902 11.2752344,10.4338987 C11.3965683,10.1406073 11.5575667,9.88308694 11.7582344,9.66132999 C11.958902,9.43957304 12.229566,9.17609159 12.5702344,8.87087773 C12.8689025,8.6038156 13.0847337,8.40232978 13.2177344,8.26641423 C13.350735,8.13049869 13.4627339,7.97908627 13.5537344,7.81217244 C13.6447348,7.64525861 13.6902344,7.46404059 13.6902344,7.26851296 C13.6902344,6.88699563 13.5514024,6.56509522 13.2737344,6.30280205 C12.9960663,6.04050889 12.6379032,5.90936428 12.1992344,5.90936428 C11.6858985,5.90936428 11.3079023,6.04170112 11.0652344,6.30637876 C10.8225665,6.57105641 10.6172352,6.96091358 10.4492344,7.47596197 C10.2905669,8.0148552 9.98956992,8.28429777 9.54623438,8.28429777 C9.28489973,8.28429777 9.06440194,8.19011209 8.88473438,8.00173791 C8.70506681,7.81336373 8.61523438,7.60949347 8.61523438,7.390121 Z M12.0312344,15.3999939 C11.7465663,15.3999939 11.4980688,15.3058082 11.2857344,15.117434 C11.0734,14.9290599 10.9672344,14.6655784 10.9672344,14.3269818 C10.9672344,14.0265369 11.0699,13.7737854 11.2752344,13.5687199 C11.4805687,13.3636543 11.7325662,13.2611231 12.0312344,13.2611231 C12.3252358,13.2611231 12.5725667,13.3636543 12.7732344,13.5687199 C12.973902,13.7737854 13.0742344,14.0265369 13.0742344,14.3269818 C13.0742344,14.6608094 12.9692354,14.9230987 12.7592344,15.1138573 C12.5492333,15.304616 12.3065691,15.3999939 12.0312344,15.3999939 Z" fill="#000000"></path>
        </g>
    </symbol>
    
    <use xlink:href="#help-is-sht" fill="#444444" viewBox="0 0 24 21"></use>
</svg>