<svg version="1.1" xmlns="http://www.w3.org/2000/svg" xmlns:xlink="http://www.w3.org/1999/xlink" width="14" height="14">
    <symbol id="man-is-shit" viewBox="0 0 14 14">
        <path d="M7.23744,1.2264 C8.68056,1.2264 10.17576,2.44216 10.17576,3.34936 L10.17576,5.47288 C10.17576,6.28992 9.8364,7.854 8.92472,8.57192 C8.69232,8.75504 8.57136,9.04568 8.60664,9.33912 C8.64192,9.63368 8.82672,9.88792 9.09552,10.01168 L12.79376,11.76504 C12.82288,11.77792 13.14824,11.83336 13.14824,12.28808 L13.1488,13.11744 L1.36248,13.11744 L1.36248,12.25504 C1.36248,11.91736 1.61616,11.81152 1.71696,11.76504 L5.4488,10.00328 C5.71704,9.88064 5.90184,9.62752 5.93712,9.3352 C5.97296,9.04344 5.85536,8.75336 5.62576,8.56912 C4.74264,7.86016 4.33104,6.30224 4.33104,5.47288 L4.33104,3.34936 C4.33104,2.46176 5.8072,1.2264 7.23744,1.2264 L7.23744,1.2264 Z M7.23744,0.37688 C5.36088,0.37688 3.48152,1.9432 3.48152,3.34992 L3.48152,5.47344 C3.48152,6.40136 3.90544,8.27848 5.0932,9.23272 L1.36136,10.99392 C1.36136,10.99392 0.5124,11.37248 0.5124,11.844 L0.5124,13.11856 C0.5124,13.58784 0.89264,13.96864 1.36136,13.96864 L13.1488,13.96864 C13.61808,13.96864 13.99832,13.58784 13.99832,13.11856 L13.99832,11.844 C13.99832,11.34392 13.1488,10.99392 13.1488,10.99392 L9.45056,9.24056 C10.62824,8.31376 11.02584,6.49376 11.02584,5.47344 L11.02584,3.34992 C11.02528,1.9432 9.11344,0.37688 7.23744,0.37688 L7.23744,0.37688 L7.23744,0.37688 Z"></path>
    </symbol>

    <use xlink:href="#man-is-shit" viewBox="0 0 14 14" fill="#fff"></use>
</svg>