<svg version="1.1" xmlns="http://www.w3.org/2000/svg" xmlns:xlink="http://www.w3.org/1999/xlink" id="product-icons">

    <symbol id="document-kod-icon" viewBox="0 0 24 30">
        <g stroke="none" stroke-width="1" fill="none" fill-rule="evenodd">
            <g stroke="#9BB6CA">
                <polygon fill="#F4F4F5" points="0.5 0.5 15 0.5 23.5 9 23.5 29.5 0.5 29.5"></polygon>
                <polyline points="14.5 0.5 14.5 9.5 23.5 9.5"></polyline>
                <path d="M4.5,14.5 L19.5,14.5" stroke-linecap="square"></path>
                <path d="M4.5,17.5 L19.5,17.5" stroke-linecap="square"></path>
                <path d="M4.5,20.5 L19.5,20.5" stroke-linecap="square"></path>
                <path d="M4.5,23.5 L19.5,23.5" stroke-linecap="square"></path>
            </g>
        </g>
    </symbol>

    <symbol id="document-no-text" viewBox="0 0 24 30">
        <g stroke="none" stroke-width="1" fill="none" fill-rule="evenodd">
            <g stroke="#9BB6CA">
                <polygon fill="#F4F4F5" points="0.5 0.5 15 0.5 23.5 9 23.5 29.5 0.5 29.5"></polygon>
                <polyline points="14.5 0.5 14.5 9.5 23.5 9.5"></polyline>
            </g>
        </g>
    </symbol>

    <symbol id="token-of-attention">
        <g stroke="none" stroke-width="1" fill-rule="evenodd">
            <path d="M64.9095185,44.7169259 C64.9095185,44.7169259 64.8912593,44.6986667 64.8912593,44.6986667 L40.6526296,4.20607407 C40.6526296,4.18781481 40.6343704,4.18781481 40.6343704,4.17062963 C39.0415185,1.59285185 36.3026296,0.0537037037 33.2952222,0.0537037037 C30.2878148,0.0537037037 27.5489259,1.59285185 25.9732593,4.15344444 C25.955,4.1717037 25.9378148,4.18888889 25.9378148,4.22540741 L1.682,44.718 C1.682,44.718 1.682,44.7362593 1.66374074,44.7362593 C0.911888889,46.0251481 0.500518519,47.5288519 0.500518519,49.0508148 C0.500518519,53.7412963 4.31348148,57.5897037 8.9857037,57.6434074 C9.00396296,57.6434074 9.00396296,57.6434074 9.02114815,57.6434074 L57.551037,57.6434074 C57.5692963,57.6434074 57.5692963,57.6434074 57.5864815,57.6434074 C62.276963,57.5897037 66.0899259,53.7412963 66.0899259,49.0508148 C66.0899259,47.5288519 65.6785556,46.0251481 64.9084444,44.7190741 L64.9095185,44.7169259 Z M57.5349259,51.9132222 L9.05874074,51.9132222 C7.50133333,51.894963 6.24788889,50.6060741 6.24788889,49.0486667 C6.24788889,48.5470741 6.37355556,48.0637407 6.62381481,47.6341111 L30.8624444,7.15977778 C30.8624444,7.15977778 30.8807037,7.14151852 30.8807037,7.14151852 C31.4177407,6.30051852 32.3124444,5.79892593 33.3156296,5.79892593 C34.3188148,5.79892593 35.2307037,6.3177037 35.7677407,7.17696296 L59.9698519,47.6158519 C60.2201111,48.0454815 60.3457778,48.5470741 60.3457778,49.0475926 C60.364037,50.605 59.0923333,51.8938889 57.5349259,51.9121481 L57.5349259,51.9132222 Z"></path>
            <path d="M33.2962963,17.5428519 C31.7206296,17.5428519 30.4317407,18.8317407 30.4317407,20.4074074 L30.4317407,31.8645556 C30.4317407,33.4402222 31.7206296,34.7291111 33.2962963,34.7291111 C34.871963,34.7291111 36.1608519,33.4402222 36.1608519,31.8645556 L36.1608519,20.4074074 C36.1608519,18.8317407 34.871963,17.5428519 33.2962963,17.5428519 Z"></path>
            <path d="M33.2962963,40.4571481 C32.5444444,40.4571481 31.8108519,40.7611111 31.2738148,41.2981481 C30.7367778,41.8351852 30.4328148,42.5687778 30.4328148,43.3206296 C30.4328148,44.0724815 30.7367778,44.8060741 31.2738148,45.3431111 C31.8108519,45.8801481 32.5444444,46.1841111 33.2962963,46.1841111 C34.0481481,46.1841111 34.7817407,45.8801481 35.3187778,45.3431111 C35.8558148,44.8060741 36.1597778,44.0724815 36.1597778,43.3206296 C36.1597778,42.5687778 35.8558148,41.8351852 35.3187778,41.2981481 C34.7817407,40.7611111 34.0481481,40.4571481 33.2962963,40.4571481 Z"></path>
        </g>
    </symbol>

	<symbol id="token-of-remove">
            <g>
                <path d="M28,40H11.8c-3.3,0-5.9-2.7-5.9-5.9V16c0-0.6,0.4-1,1-1s1,0.4,1,1v18.1c0,2.2,1.8,3.9,3.9,3.9H28c2.2,0,3.9-1.8,3.9-3.9V16   c0-0.6,0.4-1,1-1s1,0.4,1,1v18.1C33.9,37.3,31.2,40,28,40z"/>
                <path d="M33.3,4.9h-7.6C25.2,2.1,22.8,0,19.9,0s-5.3,2.1-5.8,4.9H6.5c-2.3,0-4.1,1.8-4.1,4.1S4.2,13,6.5,13h26.9   c2.3,0,4.1-1.8,4.1-4.1S35.6,4.9,33.3,4.9z M19.9,2c1.8,0,3.3,1.2,3.7,2.9h-7.5C16.6,3.2,18.1,2,19.9,2z M33.3,11H6.5   c-1.1,0-2.1-0.9-2.1-2.1c0-1.1,0.9-2.1,2.1-2.1h26.9c1.1,0,2.1,0.9,2.1,2.1C35.4,10.1,34.5,11,33.3,11z"/>
                <path d="M12.9,35.1c-0.6,0-1-0.4-1-1V17.4c0-0.6,0.4-1,1-1s1,0.4,1,1v16.7C13.9,34.6,13.4,35.1,12.9,35.1z"/>
                <path d="M26.9,35.1c-0.6,0-1-0.4-1-1V17.4c0-0.6,0.4-1,1-1s1,0.4,1,1v16.7C27.9,34.6,27.4,35.1,26.9,35.1z"/>
                <path d="M19.9,35.1c-0.6,0-1-0.4-1-1V17.4c0-0.6,0.4-1,1-1s1,0.4,1,1v16.7C20.9,34.6,20.4,35.1,19.9,35.1z"/>
            </g>
	</symbol>

	<symbol id="token-of-broom">
		<g><path d="M657.9,755.2c-5.6,22.3-34.1,71.1-79.4,136.7c12.4,2.9,24.3,6.1,36.3,8.3c22,4,44.1,7.1,66,11.1c7.2,1.3,10.9-1.3,14.7-7c44.2-65.7,79.8-135.9,109.7-209c11.7-28.6,21.7-57.9,32.5-86.9c1.1-2.9,2.2-5.9,3.5-9.4c23.7,8.2,46.8,16.1,71,24.5c-4.3,12.7-8.3,24.7-12.5,36.6c-36.3,101-81.6,197.5-141.9,286.6c-5,7.4-10.7,14.4-15.6,21.8c-11.4,17.1-27.2,22.4-47.1,20.5c-76.7-7.3-151.1-24.8-223.1-51.9C340.9,887.8,228,812.3,138.6,703.5c-10.7-13-13.8-27.5-6.8-42.8c6.7-14.8,19.7-21.5,35.6-21.7c68.1-0.9,133.8-14.5,197.2-38.6c57.4-21.7,109.8-51.8,150.1-99.4c11.7-13.8,21.2-29.4,32.2-44.9c20.8,11.7,42.1,23.7,65.7,37c-12.2,17.6-23,35.3-35.8,51.4c-31.2,39.4-70.5,69.3-114.1,93.6C397,674.7,326,695.7,252,707.7c-1.5,0.2-2.9,0.5-6.5,1.2c10.6,9.7,19.5,18.7,29.3,26.7c18.4,14.9,37,29.4,56.1,43.3c3.7,2.7,10.2,3.9,14.8,2.8c37.9-8.6,72.7-23.7,101.9-50.7c-2.5,13.3-26.5,47-60.1,84.5c21.1,10.5,42.5,19.8,62.4,31.4c25.8,15.1,50.4,11,75.7,0.1C568.3,828.6,604.9,801,640,771C645.7,766.1,651.2,761.1,657.9,755.2L657.9,755.2z M934.9,560.3c-120-53.4-239-106.3-359-159.7c9.9-23,25.5-40.6,46.5-53c35.1-20.7,71.9-23,109.2-6.8c47.9,20.9,95.8,41.9,143.3,63.9c55.8,25.8,82,83.9,65,141.6C938.6,550.8,936.8,555.2,934.9,560.3L934.9,560.3z M881.6,351.2c-37.8-16.8-75.1-33.4-112.3-50.1c-0.8-0.4-1.4-1.2-2.4-2.2c1.4-2.8,2.7-5.7,4.2-8.4c46.7-87.6,93.4-175.1,140.1-262.7c7.8-14.7,16.9-19.1,33.7-16.6c15.5,2.3,28.6,8.9,38.6,21c6.6,8,8.3,16.6,4.6,26.8c-34.9,95.9-69.5,191.9-104.2,287.9C883.4,348,882.7,349.1,881.6,351.2L881.6,351.2z M311.9,443.7c-1.3,52.1-45,94.6-95.9,93c-52-1.6-93.8-44.9-92.8-96.3c1.1-51,45-93.6,95.6-92.6C270.5,348.8,313.1,392.7,311.9,443.7L311.9,443.7z M66.8,159.4c31.3,0.1,56.5,25.7,56.3,56.8c-0.3,30.7-25.6,56-56.3,56.2C36,272.6,10,246.7,10,215.8C10,184.6,35.5,159.3,66.8,159.4L66.8,159.4z M199,234.6c0-21,16.8-37.7,37.8-37.6c20.8,0.1,37.9,17.4,37.5,38c-0.3,20.2-17.3,37.1-37.5,37.3C216.1,272.6,199,255.5,199,234.6L199,234.6z"/></g>
	</symbol>
	
    <symbol id="token-of-gears3">
        <g><path d="M214.775,305.313l-5.1-19.1c-1.1-4,0.2-8.2,3.3-11c4.3-3.9,8.4-8.2,12.1-12.9c2.6-3.2,6.6-4.8,10.7-4l19.9,3.8
                c4.9,0.9,9.8-1.9,11.5-6.5l4.6-12.5l4.6-12.5c1.8-4.7-0.1-9.9-4.5-12.4l-17.1-9.9c-3.6-2.1-5.6-6-5.4-10.1
                c0.3-6,0.1-11.9-0.5-17.7c-0.5-4.1,1.3-8,4.7-10.3l16.8-11.4c4.1-2.8,5.6-8.1,3.6-12.6l-5.5-12l-5.5-12c-2-4.5-7-6.8-11.9-5.6
                l-19,5.3c-4,1.1-8.3-0.2-11.1-3.3c-3.9-4.3-8.2-8.4-12.8-12.1c-3.2-2.6-4.8-6.6-4-10.7l3.8-19.9c0.9-4.9-1.9-9.8-6.5-11.5
                l-12.5-4.6l-12.5-4.6c-4.7-1.8-9.9,0.1-12.4,4.5l-9.8,17c-2.1,3.6-6.1,5.7-10.2,5.4c-6.2-0.4-12.3-0.2-18.3,0.6
                c-4.1,0.5-8.2-1.3-10.5-4.7l-11.2-16.6c-2.8-4.1-8.1-5.6-12.6-3.5l-12,5.5l-12,5.5c-4.5,2-6.8,7-5.6,11.9l5.2,19.4
                c1.1,4-0.2,8.2-3.3,10.9c-4.4,4-8.4,8.3-12.1,13c-2.5,3.2-6.7,4.8-10.7,4l-19.6-3.8c-4.8-0.9-9.6,1.8-11.5,6.2l-4.6,12.5
                l-4.6,12.5c-1.8,4.7,0.1,9.9,4.5,12.4l17.3,10c3.6,2.1,5.6,5.9,5.4,10c-0.3,6-0.1,11.9,0.6,17.8c0.5,4.1-1.3,8.1-4.7,10.4
                l-16.6,11.3c-4.1,2.8-5.6,8.1-3.5,12.6l5.5,12l5.5,12c2,4.5,7,6.8,11.9,5.6l19.4-5.2c4-1.1,8.2,0.2,10.9,3.3
                c4,4.4,8.3,8.4,13,12.1c3.2,2.5,4.8,6.7,4,10.7l-3.8,19.6c-0.9,4.9,1.9,9.8,6.5,11.5l12.5,4.6l12.5,4.6c4.7,1.8,9.9-0.1,12.4-4.5
                l10-17.3c2.1-3.6,6-5.6,10.1-5.5c5.7,0.2,11.3,0,16.9-0.6c4.1-0.5,8.1,1.3,10.4,4.7l11.4,16.8c2.8,4.1,8.1,5.6,12.6,3.5l12-5.5
                l12-5.5C213.675,315.113,216.075,310.113,214.775,305.313z M193.775,212.613c-10.9,30.5-44.4,46.4-74.9,35.6
                c-30.5-10.8-46.4-44.3-35.6-74.8s44.3-46.4,74.8-35.6C188.675,148.613,204.575,182.113,193.775,212.613z"/>
        <path d="M377.975,333.413l-11.6-2c-2.4-0.4-4.4-2.2-5.1-4.6c-1-3.3-2.3-6.6-3.9-9.8c-1.1-2.2-0.9-4.8,0.5-6.8l7.1-9.8
                c1.7-2.4,1.4-5.8-0.6-7.8l-5.6-5.6l-5.6-5.6c-2.1-2.1-5.4-2.4-7.8-0.7l-9.6,6.8c-2,1.4-4.7,1.6-6.8,0.4c-3.1-1.7-6.4-3-9.7-4.2
                c-2.3-0.8-4-2.7-4.4-5.1l-1.9-11.9c-0.5-2.9-3-5.1-5.9-5.1h-7.9h-7.9c-2.9,0-5.5,2.1-6,5l-1.9,11.6c-0.4,2.5-2.2,4.4-4.6,5.2
                c-3.3,1-6.6,2.3-9.7,3.9c-2.2,1.1-4.8,0.9-6.8-0.5l-9.8-7.1c-2.4-1.7-5.8-1.4-7.8,0.6l-5.6,5.6l-5.6,5.6c-2.1,2.1-2.4,5.4-0.7,7.8
                l6.7,9.6c1.4,2,1.5,4.7,0.4,6.9c-1.7,3.3-3.2,6.6-4.3,10c-0.8,2.3-2.7,4.1-5.2,4.5l-11.8,1.9c-2.9,0.5-5.1,3-5.1,5.9v7.9v7.9
                c0,2.9,2.1,5.5,5,6l11.8,2.1c2.4,0.4,4.4,2.2,5.1,4.5c1.1,3.4,2.4,6.6,4,9.8c1.1,2.2,0.9,4.8-0.5,6.8l-7,9.7
                c-1.7,2.4-1.4,5.6,0.5,7.8l5.6,5.6l5.6,5.6c2.1,2.1,5.4,2.4,7.8,0.7l9.7-6.9c2-1.4,4.6-1.6,6.8-0.4c3.2,1.6,6.4,3,9.8,4.1
                c2.3,0.8,4.1,2.7,4.5,5.1l1.9,11.8c0.5,2.9,3,5.1,5.9,5.1h7.9h7.9c2.9,0,5.5-2.1,6-5l2.1-11.8c0.4-2.4,2.2-4.4,4.5-5.1
                c3.4-1.1,6.6-2.4,9.8-4c2.2-1.1,4.8-0.9,6.8,0.5l9.7,7c2.4,1.7,5.8,1.4,7.8-0.6l5.6-5.6l5.6-5.6c2.1-2.1,2.4-5.4,0.7-7.8l-6.9-9.7
                c-1.4-2-1.5-4.6-0.4-6.8c1.5-3,2.9-6.1,3.9-9.3c0.8-2.3,2.7-4.1,5.2-4.5l11.9-1.9c2.9-0.5,5.1-3,5.1-5.9v-7.9v-7.9
                C382.975,336.513,380.875,333.913,377.975,333.413z M323.075,370.913c-13.5,13.8-35.6,14-49.4,0.5s-14-35.6-0.5-49.4
                s35.6-14,49.4-0.5S336.575,357.113,323.075,370.913z"/>
        <path d="M482.975,279.013l-7.7-2.5c-1.6-0.5-2.8-1.9-3.1-3.6c-0.4-2.4-1-4.7-1.7-7c-0.5-1.6-0.2-3.4,1-4.6l5.7-6
                c1.4-1.5,1.5-3.8,0.3-5.4l-3.3-4.4l-3.3-4.4c-1.2-1.7-3.4-2.1-5.3-1.2l-7.2,3.7c-1.5,0.8-3.3,0.6-4.7-0.4c-2-1.4-4.1-2.7-6.2-3.8
                c-1.5-0.7-2.5-2.2-2.5-3.9l-0.2-8.3c-0.1-2-1.6-3.7-3.6-4l-5.4-0.8l-5.4-0.8c-2-0.3-3.9,0.9-4.6,2.9l-2.4,7.7
                c-0.5,1.6-1.9,2.8-3.6,3.1c-2.4,0.4-4.7,1-7,1.7c-1.6,0.5-3.4,0.2-4.6-1l-6-5.7c-1.5-1.4-3.8-1.5-5.4-0.3l-4.4,3.3l-4.4,3.3
                c-1.7,1.2-2.1,3.4-1.2,5.3l3.7,7.2c0.8,1.5,0.6,3.4-0.4,4.7c-1.5,2.1-2.8,4.2-3.9,6.4c-0.7,1.5-2.3,2.5-4,2.6l-8.2,0.2
                c-2,0.1-3.7,1.6-4,3.6l-0.8,5.4l-0.8,5.4c-0.3,2,0.9,3.9,2.9,4.6l7.8,2.5c1.6,0.5,2.8,1.9,3,3.6c0.4,2.4,1,4.8,1.8,7.1
                c0.5,1.6,0.2,3.4-1,4.6l-5.7,5.9c-1.4,1.5-1.5,3.7-0.4,5.3l3.3,4.4l3.3,4.4c1.2,1.7,3.4,2.1,5.3,1.2l7.3-3.8
                c1.5-0.8,3.3-0.6,4.7,0.4c2,1.4,4.1,2.7,6.3,3.7c1.5,0.7,2.5,2.2,2.5,3.9l0.2,8.2c0.1,2,1.6,3.7,3.6,4l5.4,0.8l5.4,0.8
                c2,0.3,3.9-0.9,4.6-2.9l2.5-7.8c0.5-1.6,1.9-2.8,3.6-3c2.4-0.4,4.8-1,7.1-1.8c1.6-0.5,3.4-0.2,4.6,1l5.9,5.7
                c1.5,1.4,3.8,1.5,5.4,0.3l4.4-3.3l4.4-3.3c1.7-1.2,2.1-3.4,1.2-5.3l-3.8-7.3c-0.8-1.5-0.6-3.3,0.4-4.7c1.3-1.9,2.5-3.9,3.6-6
                c0.8-1.5,2.3-2.5,3.9-2.5l8.3-0.2c2-0.1,3.7-1.6,4-3.6l0.8-5.4l0.8-5.4C486.175,281.613,484.975,279.713,482.975,279.013z
                 M441.975,299.413c-10.5,8.1-25.6,6.2-33.7-4.4c-8.1-10.5-6.2-25.6,4.4-33.7c10.5-8.1,25.6-6.2,33.7,4.4
                C454.475,276.213,452.475,291.313,441.975,299.413z"/>
        </g>
    </symbol>

    <symbol id="folder-none-document">
        <path d="m7.2929 34.894c-3.87 0-6.9999 3.134-6.9999 6.9999v50.333c-0.10991-0.0115-0.17477-0.0141-0.29296-0.0273v124.4c0.001959 0.04 0.003959 0.07 0.005959 0.11 0.002 0.0901 0.006 0.18164 0.0137 0.27147 0.005 0.0601 0.0118 0.11983 0.0195 0.17969 0.01 0.0803 0.0213 0.16056 0.0352 0.24023 0.0138 0.0737 0.0294 0.14582 0.0469 0.21875 0.017 0.0738 0.0359 0.14786 0.0566 0.22071 0.0198 0.0705 0.0413 0.14145 0.0644 0.21092 0.0254 0.074 0.0528 0.14614 0.082 0.21875 0.0259 0.064 0.0532 0.12676 0.082 0.18946 0.032 0.0709 0.0659 0.14182 0.10157 0.21093 0.033 0.0641 0.0675 0.12697 0.10351 0.18945 0.0422 0.0746 0.0865 0.14865 0.13281 0.2207 0.0341 0.0507 0.0693 0.10111 0.10547 0.15039 0.0502 0.0681 0.10228 0.13404 0.15625 0.19922 0.0417 0.0543 0.0847 0.10781 0.1289 0.16017 0.0543 0.0615 0.11037 0.12122 0.16797 0.17966 0.0471 0.0477 0.0953 0.095 0.14453 0.14063 0.0628 0.0585 0.12732 0.11511 0.19336 0.16992 0.0487 0.0377 0.0982 0.0738 0.14843 0.10938 0.0663 0.0519 0.13403 0.1023 0.20312 0.15039 0.0608 0.0415 0.12274 0.0806 0.18555 0.11914 0.0648 0.0383 0.13058 0.0763 0.19726 0.11133 0.0643 0.0349 0.12941 0.0679 0.19531 0.0996 0.0702 0.0318 0.14116 0.0617 0.21289 0.0899 0.0613 0.0247 0.12318 0.0483 0.18555 0.0703 0.0824 0.0325 0.16579 0.0623 0.24999 0.0898 0.0634 0.0181 0.12725 0.0355 0.19141 0.0508 0.0744 0.0186 0.14933 0.0341 0.2246 0.0488 0.0746 0.0119 0.1495 0.0231 0.22461 0.0312 0.0785 0.0121 0.15731 0.0214 0.23633 0.0293 0.0825 0.009 0.16517 0.0151 0.24804 0.0195 0.052 0.004 0.10413 0.008 0.15625 0.01h209.62 1.6308c1.988-0.00063 3.7405-1.3045 4.3105-3.209l35.75-119.18c0.86486-2.8867-1.297-5.7922-4.3105-5.793h-32.607v-34.923c0-0.72487-0.11013-1.4244-0.31446-2.082-0.00018-0.00059 0.00019-0.001 0-0.002-0.16117-1.7446-1.3018-3.1952-2.8808-3.789-1.0953-0.71072-2.4002-1.1269-3.8046-1.1269h-119.56v-9.1073c0-3.866-3.13-6.9999-6.9999-6.9999h-6.0409-65.958-6.0409zm6.9999 14.002h6.041 51.958 6.041v2.6816 13.566h14v-0.14062h112.56v27.918h-82.579c-1.2274 0.00043-2.4014 0.50185-3.25 1.3887l-23.857 24.914h-57.39c-1.8997-0.0005-3.5964 1.1905-4.2382 2.9785l-19.283 53.773v-127.08z"></path>
    </symbol>
    
    <symbol id="transneft-logo" viewBox="0 0 45 39">
        <g stroke="none" stroke-width="1" fill="none" fill-rule="evenodd" transform="translate(-372.000000, -24.000000)">
            <g transform="translate(372.000000, 24.000000)">
                <path d="M39.6539051,0.151067194 L41.8904704,0.151067194 C42.764502,0.232766798 43.6340632,0.388458498 44.4849723,0.611976285 C44.0501146,1.37964427 43.5398775,2.09967984 43.071415,2.8457668 C41.97217,4.51351779 40.9439881,6.23229249 39.7907905,7.86320158 C40.7946166,5.98703953 41.9444229,4.18810672 42.8939881,2.28604743 C40.2147036,2.02090909 37.3663162,2.44651779 35.0892095,3.95241107 C33.9008656,4.70928854 33.1287273,5.92399209 32.3456443,7.0586917 C30.0703874,10.5716206 28.0679763,14.2511858 25.8341858,17.7904743 C24.3851739,20.0518577 22.896083,22.3132411 21.0368775,24.2632411 C20.1552925,25.1525336 19.1826047,26.0282609 17.9786917,26.4398419 C16.7655296,26.7681818 15.489166,26.8329249 14.2420909,26.7373518 C15.5693241,26.7281028 17.006004,26.8036364 18.1698379,26.0344269 C19.9872688,24.8413043 21.2790474,23.034664 22.4983755,21.2727273 C24.5348538,18.2190119 26.2488498,14.9679842 27.9720949,11.7323715 C29.2285731,9.38327668 30.4310988,6.99996047 31.850668,4.74166008 C27.0689289,1.36577075 20.6084941,0.553245059 15.1407866,2.64213439 C12.1071107,3.77513834 9.40485771,5.74841502 7.35466008,8.25320158 C7.13268379,8.63241107 6.67948221,8.41660079 6.33110277,8.43201581 C5.31216996,8.35802372 4.31790119,8.63703557 3.35600395,8.93916996 C5.64050988,5.43687747 9.11351383,2.73462451 13.0505099,1.33632806 C16.7979012,-0.00308300395 20.9568735,-0.137193676 24.7876601,0.931221344 C27.3926443,1.64324111 29.8129565,2.94426877 31.9154111,4.63067194 C32.3639881,3.96011858 32.8094822,3.2741502 33.4077391,2.72367984 C35.1232767,1.19312253 37.3752569,0.345296443 39.6539051,0.151067194" fill="#015B9C"></path>
                <path d="M1.69580632,11.8341107 C2.32181028,10.7935968 3.42845455,10.0629249 4.62620158,9.86869565 C6.07521344,9.62051383 7.56430435,9.93498024 8.90849407,10.4914625 C8.33967984,10.6610277 7.8371502,11.0047826 7.47952174,11.4781779 C6.45442292,12.8746245 5.85940316,14.6026482 5.90580237,16.3413083 C5.91181423,17.7503953 6.34960079,19.11 6.85829644,20.4079447 C8.23485771,23.8192885 10.6997194,26.7251739 13.6563202,28.8832767 C16.7578221,31.1306324 20.4142648,32.6228063 24.2142213,33.1268775 C27.7394822,33.5970356 31.4144229,33.171581 34.6578972,31.6716996 C33.2656126,33.4367194 31.5314229,34.9319763 29.5906719,36.0665217 C26.9779802,37.6265217 24.0199921,38.6516206 20.9721344,38.8473913 C16.4402727,39.1680237 11.7926443,37.8839526 8.12386957,35.1909486 C5.81624111,33.3995692 3.84157708,31.1569921 2.4542253,28.5809881 C-0.306604743,23.4924901 -0.653442688,17.141502 1.69580632,11.8341107" fill="#015B9C"></path>
                <path d="M36.0526482,13.659249 C38.5546601,12.498498 41.4187708,12.8807905 44.0610593,13.2320988 C44.0579763,13.29083 44.0516561,13.4064427 44.0485731,13.4650198 C42.3466008,15.8882609 40.4923281,18.2083755 38.7397945,20.5944664 C38.0584506,20.7578656 37.3401107,20.7994862 36.7141067,21.1432411 C35.3993597,21.833834 34.1399526,22.641581 32.9882964,23.5803557 C30.7284545,25.4902767 28.6643834,27.686917 26.0470672,29.1235968 C24.953834,29.7509881 23.7439091,30.1440711 22.5136364,30.395336 C21.7586087,30.5280593 20.9770672,30.3477036 20.2323676,30.5448617 C18.7833557,29.9697273 17.4592055,29.1081818 16.1766759,28.2310672 C18.1220514,28.5594071 20.1662372,28.5933202 22.0451739,27.9198379 C23.4479407,27.3894071 24.5131186,26.2826087 25.4888893,25.1866008 C27.42517,22.9529644 29.3703913,20.7254941 31.2265138,18.4240316 C32.670747,16.6898419 34.1134387,14.8630079 36.0526482,13.659249" fill="#015B9C"></path>
                <path d="M36.7141067,21.1432411 C37.3401107,20.7994862 38.0584506,20.7578656 38.7397945,20.5944664 C40.8593597,20.387751 43.0142253,20.9721344 44.8549328,22.0049407 C42.7398379,24.161502 40.6312174,26.3242292 38.4299526,28.3929249 C37.4231976,29.2854545 36.4859644,30.2858893 35.2960791,30.9441107 C33.8361225,31.7765217 32.1726877,32.1589684 30.5234348,32.3869565 C27.0026443,32.6505534 23.412332,32.0200791 20.2013834,30.5510277 L20.2323676,30.5448617 C20.9770672,30.3477036 21.7586087,30.5280593 22.5136364,30.395336 C23.7439091,30.1440711 24.953834,29.7509881 26.0470672,29.1235968 C28.6643834,27.686917 30.7284545,25.4902767 32.9882964,23.5803557 C34.1399526,22.641581 35.3993597,21.833834 36.7141067,21.1432411" fill="#ED2724"></path>
            </g>
        </g>
    </symbol>

    <symbol id="folder-orange" viewBox="0 0 20 16" >
        <g stroke="none" stroke-width="1" fill="none" fill-rule="evenodd" transform="translate(-45.000000, -199.000000)">
            <path fill="#FFCA28" d="M46,199 L52,199 L55.0295285,202.009995 L64,202.009995 C64.5522847,202.009995 65,202.45771 65,203.009995 L65,214 C65,214.552285 64.5522847,215 64,215 L46,215 C45.4477153,215 45,214.552285 45,214 L45,200 C45,199.447715 45.4477153,199 46,199 Z"></path>
            <path stroke="#FFA000" stroke-width="1" d="M51.7938399,199.5 L46,199.5 C45.7238576,199.5 45.5,199.723858 45.5,200 L45.5,214 C45.5,214.276142 45.7238576,214.5 46,214.5 L64,214.5 C64.2761424,214.5 64.5,214.276142 64.5,214 L64.5,203.009995 C64.5,202.733852 64.2761424,202.509995 64,202.509995 L54.8233684,202.509995 L51.7938399,199.5 Z"></path>
        </g>
    </symbol>

    <symbol id="folder-orange-opened" viewBox="0 0 24 16">
        <g stroke="none" stroke-width="1" fill="none" fill-rule="evenodd">
            <path fill="#FFCA28" fill-rule="evenodd" d="M1,0 L6.99999993,0 L10.0295284,3.00999451 L22.6457341,3.00999451 C23.1980189,3.00999451 23.6457341,3.45770976 23.6457341,4.00999451 C23.6457341,4.10975175 23.6308073,4.2089475 23.6014495,4.30428703 L20.2173076,15.2942925 C20.0881353,15.7137799 19.7005172,16 19.2615922,16 L1,16 C0.44771525,16 6.76353751e-17,15.5522847 0,15 L0,1 C-6.76353751e-17,0.44771525 0.44771525,1.01453063e-16 1,0 Z"></path>
            <path stroke="#FFA000" stroke-width="1" d="M6.79383983,0.5 L1,0.5 C0.723857625,0.5 0.5,0.723857625 0.5,1 L0.5,15 C0.5,15.2761424 0.723857625,15.5 1,15.5 L19.2615922,15.5 C19.4810547,15.5 19.6748638,15.3568899 19.7394499,15.1471463 L23.1235918,4.15714077 C23.1382707,4.109471 23.1457341,4.05987313 23.1457341,4.00999451 C23.1457341,3.73385213 22.9218765,3.50999451 22.6457341,3.50999451 L9.82336832,3.50999451 L6.79383983,0.5 Z"></path>
            <polygon fill="#FFA000" points="-2.26663133e-12 0 7 0 11 4 5 4 1 15 -2.26663133e-12 15"></polygon>
        </g>
    </symbol>
    
    <symbol id="folder-blue" viewBox="0 0 20 16">
        <g stroke="none" stroke-width="1" fill="none" fill-rule="evenodd" transform="translate(-45.000000, -199.000000)">
            <path fill="#9BB6CA" d="M46,199 L52,199 L55.0295285,202.009995 L64,202.009995 C64.5522847,202.009995 65,202.45771 65,203.009995 L65,214 C65,214.552285 64.5522847,215 64,215 L46,215 C45.4477153,215 45,214.552285 45,214 L45,200 C45,199.447715 45.4477153,199 46,199 Z"></path>
            <path stroke="#02599B" stroke-width="1" d="M51.7938399,199.5 L46,199.5 C45.7238576,199.5 45.5,199.723858 45.5,200 L45.5,214 C45.5,214.276142 45.7238576,214.5 46,214.5 L64,214.5 C64.2761424,214.5 64.5,214.276142 64.5,214 L64.5,203.009995 C64.5,202.733852 64.2761424,202.509995 64,202.509995 L54.8233684,202.509995 L51.7938399,199.5 Z"></path>
        </g>
    </symbol>
    
    <symbol id="folder-blue-opened" viewBox="0 0 24 16">
        <g stroke="none" stroke-width="1" fill="none" fill-rule="evenodd" transform="translate(-45.000000, -237.000000)">
            <g transform="translate(45.000000, 237.000000)">
                <path fill="#9BB6CA" fill-rule="evenodd" d="M1,0 L6.99999993,0 L10.0295284,3.00999451 L22.6457341,3.00999451 C23.1980189,3.00999451 23.6457341,3.45770976 23.6457341,4.00999451 C23.6457341,4.10975175 23.6308073,4.2089475 23.6014495,4.30428703 L20.2173076,15.2942925 C20.0881353,15.7137799 19.7005172,16 19.2615922,16 L1,16 C0.44771525,16 6.76353751e-17,15.5522847 0,15 L0,1 C-6.76353751e-17,0.44771525 0.44771525,1.01453063e-16 1,0 Z"></path>
                <path stroke="#02599B" stroke-width="1" d="M6.79383983,0.5 L1,0.5 C0.723857625,0.5 0.5,0.723857625 0.5,1 L0.5,15 C0.5,15.2761424 0.723857625,15.5 1,15.5 L19.2615922,15.5 C19.4810547,15.5 19.6748638,15.3568899 19.7394499,15.1471463 L23.1235918,4.15714077 C23.1382707,4.109471 23.1457341,4.05987313 23.1457341,4.00999451 C23.1457341,3.73385213 22.9218765,3.50999451 22.6457341,3.50999451 L9.82336832,3.50999451 L6.79383983,0.5 Z"></path>             <polygon fill="#02599B" points="-2.26663133e-12 0 7 0 11 4 5 4 1 15 -2.26663133e-12 15"></polygon>
            </g>
        </g>
    </symbol>

    <symbol id="pyramid-down" viewBox="0 0 9.863 4.933">
        <path fill-rule="evenodd" clip-rule="evenodd" d="M9.863 0l-4.93 4.933L0 0h9.863z"/>
    </symbol>
    
    <symbol id="pyramid-down-ty" viewBox="0 0 9.863 4.933">
        <g transform="rotate(90) scale(0.5) translate(0 -4.933)">
            <use xlink:href="#pyramid-down"></use>
        </g>
    </symbol>

    <symbol id="pyramid-upside-down" viewBox="0 0 9.863 4.933">
        <g transform="rotate(180) translate(-9.863 -4.933)">
            <use xlink:href="#pyramid-down"></use>
        </g>
    </symbol>
    
    <symbol id="man-is-shit" viewBox="0 0 14 14">
        <g>
            <path d="M7.23744,1.2264 C8.68056,1.2264 10.17576,2.44216 10.17576,3.34936 L10.17576,5.47288 C10.17576,6.28992 9.8364,7.854 8.92472,8.57192 C8.69232,8.75504 8.57136,9.04568 8.60664,9.33912 C8.64192,9.63368 8.82672,9.88792 9.09552,10.01168 L12.79376,11.76504 C12.82288,11.77792 13.14824,11.83336 13.14824,12.28808 L13.1488,13.11744 L1.36248,13.11744 L1.36248,12.25504 C1.36248,11.91736 1.61616,11.81152 1.71696,11.76504 L5.4488,10.00328 C5.71704,9.88064 5.90184,9.62752 5.93712,9.3352 C5.97296,9.04344 5.85536,8.75336 5.62576,8.56912 C4.74264,7.86016 4.33104,6.30224 4.33104,5.47288 L4.33104,3.34936 C4.33104,2.46176 5.8072,1.2264 7.23744,1.2264 L7.23744,1.2264 Z M7.23744,0.37688 C5.36088,0.37688 3.48152,1.9432 3.48152,3.34992 L3.48152,5.47344 C3.48152,6.40136 3.90544,8.27848 5.0932,9.23272 L1.36136,10.99392 C1.36136,10.99392 0.5124,11.37248 0.5124,11.844 L0.5124,13.11856 C0.5124,13.58784 0.89264,13.96864 1.36136,13.96864 L13.1488,13.96864 C13.61808,13.96864 13.99832,13.58784 13.99832,13.11856 L13.99832,11.844 C13.99832,11.34392 13.1488,10.99392 13.1488,10.99392 L9.45056,9.24056 C10.62824,8.31376 11.02584,6.49376 11.02584,5.47344 L11.02584,3.34992 C11.02528,1.9432 9.11344,0.37688 7.23744,0.37688 L7.23744,0.37688 L7.23744,0.37688 Z"></path>
        </g>
    </symbol>
    
    <symbol id="help-is-sht" viewBox="0 0 24 21">
        <g stroke="none" stroke-width="1" fill="none" fill-rule="evenodd">
            <path d="M12,19.5 C18.627417,19.5 24,15.0228475 24,9.5 C24,3.9771525 18.627417,0 12,0 C5.372583,0 0,3.9771525 0,9.5 C0,10.9836743 0.806091733,12.8146672 2.4182752,14.9929784 L1.32421613,20.6756677 L7.4979495,18.7700043 C9.43789423,19.2566681 10.9385777,19.5 12,19.5 Z" fill="#FFFFFF"></path>
            <path d="M8.61523438,7.390121 C8.61523438,6.93706918 8.75756628,6.47806303 9.04223437,6.01308878 C9.32690247,5.54811454 9.74223165,5.16302626 10.2882344,4.8578124 C10.8342371,4.55259854 11.4712307,4.3999939 12.1992344,4.3999939 C12.8759044,4.3999939 13.4732318,4.52756184 13.9912344,4.78270155 C14.509237,5.03784127 14.9093996,5.38477838 15.1917344,5.82352331 C15.4740691,6.26226824 15.6152344,6.73915774 15.6152344,7.25420613 C15.6152344,7.65956829 15.5347352,8.01485098 15.3737344,8.32006484 C15.2127336,8.6252787 15.0214021,8.88876015 14.7997344,9.1105171 C14.5780666,9.33227405 14.1802372,9.70544009 13.6062344,10.2300264 C13.4475669,10.3778644 13.3204015,10.5078168 13.2247344,10.6198875 C13.1290672,10.7319582 13.0579013,10.8344894 13.0112344,10.9274843 C12.9645675,11.0204791 12.9284012,11.1134726 12.9027344,11.2064674 C12.8770676,11.2994623 12.838568,11.4627969 12.7872344,11.6964763 C12.6985673,12.1924488 12.4209034,12.4404314 11.9542344,12.4404314 C11.7115665,12.4404314 11.5074019,12.3593602 11.3417344,12.1972153 C11.1760669,12.0350704 11.0932344,11.7942412 11.0932344,11.4747205 C11.0932344,11.0741273 11.1539004,10.7271902 11.2752344,10.4338987 C11.3965683,10.1406073 11.5575667,9.88308694 11.7582344,9.66132999 C11.958902,9.43957304 12.229566,9.17609159 12.5702344,8.87087773 C12.8689025,8.6038156 13.0847337,8.40232978 13.2177344,8.26641423 C13.350735,8.13049869 13.4627339,7.97908627 13.5537344,7.81217244 C13.6447348,7.64525861 13.6902344,7.46404059 13.6902344,7.26851296 C13.6902344,6.88699563 13.5514024,6.56509522 13.2737344,6.30280205 C12.9960663,6.04050889 12.6379032,5.90936428 12.1992344,5.90936428 C11.6858985,5.90936428 11.3079023,6.04170112 11.0652344,6.30637876 C10.8225665,6.57105641 10.6172352,6.96091358 10.4492344,7.47596197 C10.2905669,8.0148552 9.98956992,8.28429777 9.54623438,8.28429777 C9.28489973,8.28429777 9.06440194,8.19011209 8.88473438,8.00173791 C8.70506681,7.81336373 8.61523438,7.60949347 8.61523438,7.390121 Z M12.0312344,15.3999939 C11.7465663,15.3999939 11.4980688,15.3058082 11.2857344,15.117434 C11.0734,14.9290599 10.9672344,14.6655784 10.9672344,14.3269818 C10.9672344,14.0265369 11.0699,13.7737854 11.2752344,13.5687199 C11.4805687,13.3636543 11.7325662,13.2611231 12.0312344,13.2611231 C12.3252358,13.2611231 12.5725667,13.3636543 12.7732344,13.5687199 C12.973902,13.7737854 13.0742344,14.0265369 13.0742344,14.3269818 C13.0742344,14.6608094 12.9692354,14.9230987 12.7592344,15.1138573 C12.5492333,15.304616 12.3065691,15.3999939 12.0312344,15.3999939 Z" fill="#0f6bac"></path>
        </g>
    </symbol>
    
    <symbol id="arrow-to-right" viewBox="0 0 24 24">
        <g>
            <path d="M8.122 24l-4.122-4 8-8-8-8 4.122-4 11.878 12z"/>
        </g>
    </symbol>

    <symbol id="arrow-to-left" viewBox="0 0 24 24">
        <g transform="rotate(180) translate(-24 -24)">
            <use xlink:href="#arrow-to-right"></use>
        </g>
    </symbol>

    <symbol id="home-awesome" viewBox="0 0 512 512">
        <g>
            <polygon points="448,288 256,64 64,288 112,288 112,448 208,448 208,320 304,320 304,448 400,448 400,288" />
        </g>
    </symbol>

    <symbol id="new-close-icon" viewBox="0 0 21 21">
        <circle stroke-width="1.1" cx="9.75" cy="9.75" r="9.25" fill="#fff"></circle>
        <g transform="translate(6.880005, 6.500000)" stroke-width="1.2">
            <path d="M0.157593877,0.438115044 L6.08595484,6.34616208"></path>
            <path d="M0.157593877,0.438115044 L6.08595484,6.34616208" transform="translate(3.121774, 3.392139) scale(-1, 1) translate(-3.121774, -3.392139) "></path>
        </g>
    </symbol>
    
    <symbol id="triangular-alert" viewBox="0 0 21 19">
        <g stroke="none" stroke-width="1" fill-rule="evenodd">
            <polygon points="0.0583641625 18.0965412 9.92406806 0.171759808 20.2818522 18.0965412"></polygon>
            <rect fill="#FFFFFF" x="9" y="7" width="2" height="5"></rect>
            <rect fill="#FFFFFF" x="9" y="14" width="2" height="2"></rect>
        </g>
    </symbol>
    
    <symbol id="kod-icon-check" viewBox="0 0 12 10">
        <g stroke="none" stroke-width="1" fill-rule="evenodd" transform="translate(-1041.000000, -243.000000)">
            <g transform="translate(1020.000000, 212.000000)" >
                <polygon transform="translate(27.010408, 35.010408) rotate(45.000000) translate(-27.010408, -35.010408) " points="24.0104076 38.5104076 24.0104076 40.0104076 30.0104076 40.5104076 29.5104076 29.5104076 28.0104076 29.5104076 28.0104076 38.5104076"></polygon>
            </g>
        </g>
    </symbol>
    
    <symbol id="excel-2013-icon" viewBox="0 0 19 19">
        <g stroke="none" stroke-width="1" fill-rule="evenodd" transform="translate(-547.000000, -705.000000)">
            <g transform="translate(531.000000, 698.000000)" fill-rule="nonzero">
                <g transform="translate(16.000000, 7.000000)">
                    <path d="M9.82876404,0 L11.0968539,0 C11.0968539,0.57 11.0968539,1.13786517 11.0968539,1.70786517 C13.2338202,1.70786517 15.3707865,1.71213483 17.5077528,1.70146067 C17.8685393,1.71640449 18.265618,1.69078652 18.5794382,1.90640449 C18.7993258,2.22235955 18.7737079,2.62370787 18.7886517,2.98662921 C18.7779775,6.69269663 18.7822472,10.3966292 18.784382,14.1005618 C18.7737079,14.7217978 18.8420225,15.3558427 18.7117978,15.9685393 C18.6264045,16.4125843 18.0926966,16.4232584 17.7361798,16.4382022 C15.5244944,16.4446067 13.3106742,16.4339326 11.0968539,16.4382022 C11.0968539,17.0786517 11.0968539,17.7191011 11.0968539,18.3595506 L9.7711236,18.3595506 C6.51764045,17.7682022 3.25775281,17.2216854 0,16.6516854 C0,11.6711236 0,6.6905618 0,1.71 C3.27696629,1.14 6.55393258,0.578539326 9.82876404,0 Z"></path>
                    <path d="M11.0968539,2.34831461 C13.4451685,2.34831461 15.7934831,2.34831461 18.1417978,2.34831461 C18.1417978,6.83146067 18.1417978,11.3146067 18.1417978,15.7977528 C15.7934831,15.7977528 13.4451685,15.7977528 11.0968539,15.7977528 C11.0968539,15.3707865 11.0968539,14.9438202 11.0968539,14.5168539 C11.6668539,14.5168539 12.2347191,14.5168539 12.8047191,14.5168539 C12.8047191,14.0194382 12.8047191,13.5198876 12.8047191,13.0224719 C12.2347191,13.0224719 11.6668539,13.0224719 11.0968539,13.0224719 C11.0968539,12.7385393 11.0968539,12.4524719 11.0968539,12.1685393 C11.6668539,12.1685393 12.2347191,12.1685393 12.8047191,12.1685393 C12.8047191,11.6711236 12.8047191,11.171573 12.8047191,10.6741573 C12.2347191,10.6741573 11.6668539,10.6741573 11.0968539,10.6741573 C11.0968539,10.3902247 11.0968539,10.1041573 11.0968539,9.82022472 C11.6668539,9.82022472 12.2347191,9.82022472 12.8047191,9.82022472 C12.8047191,9.32280899 12.8047191,8.82325843 12.8047191,8.3258427 C12.2347191,8.3258427 11.6668539,8.3258427 11.0968539,8.3258427 C11.0968539,8.04191011 11.0968539,7.7558427 11.0968539,7.47191011 C11.6668539,7.47191011 12.2347191,7.47191011 12.8047191,7.47191011 C12.8047191,6.97449438 12.8047191,6.47494382 12.8047191,5.97752809 C12.2347191,5.97752809 11.6668539,5.97752809 11.0968539,5.97752809 C11.0968539,5.69359551 11.0968539,5.40752809 11.0968539,5.12359551 C11.6668539,5.12359551 12.2347191,5.12359551 12.8047191,5.12359551 C12.8047191,4.62617978 12.8047191,4.12662921 12.8047191,3.62921348 C12.2347191,3.62921348 11.6668539,3.62921348 11.0968539,3.62921348 C11.0968539,3.20224719 11.0968539,2.7752809 11.0968539,2.34831461 Z" fill="#FFFFFF"></path>
                    <path d="M13.6586517,3.62921348 C14.655618,3.62921348 15.6504494,3.62921348 16.6474157,3.62921348 C16.6474157,4.12662921 16.6474157,4.62617978 16.6474157,5.12359551 C15.6504494,5.12359551 14.655618,5.12359551 13.6586517,5.12359551 C13.6586517,4.62617978 13.6586517,4.12662921 13.6586517,3.62921348 Z" ></path>
                    <path d="M6.32337079,5.62955056 C6.8058427,5.59539326 7.29044944,5.56550562 7.77505618,5.54202247 C7.20505618,6.70977528 6.63292135,7.87752809 6.05224719,9.04101124 C6.63932584,10.2365169 7.23921348,11.4234831 7.82842697,12.6189888 C7.31393258,12.5891011 6.80157303,12.5570787 6.28707865,12.5207865 C5.9241573,11.6305618 5.48224719,10.7702247 5.22179775,9.8394382 C4.93146067,10.7061798 4.51730337,11.5238202 4.18426966,12.3734831 C3.71674157,12.3670787 3.24921348,12.3478652 2.78168539,12.3286517 C3.33033708,11.2548315 3.85977528,10.1724719 4.42550562,9.10505618 C3.94516854,8.00561798 3.41786517,6.92752809 2.92258427,5.83449438 C3.39224719,5.80674157 3.86191011,5.77898876 4.33157303,5.75337079 C4.64966292,6.58808989 4.99764045,7.41213483 5.26022472,8.26820225 C5.54202247,7.36089888 5.96258427,6.50696629 6.32337079,5.62955056 Z" id="path72" fill="#FFFFFF"></path>
                    <path d="M13.6586517,5.97752809 C14.655618,5.97752809 15.6504494,5.97752809 16.6474157,5.97752809 C16.6474157,6.47494382 16.6474157,6.97449438 16.6474157,7.47191011 C15.6504494,7.47191011 14.655618,7.47191011 13.6586517,7.47191011 C13.6586517,6.97449438 13.6586517,6.47494382 13.6586517,5.97752809 Z" ></path>
                    <path d="M13.6586517,8.3258427 C14.655618,8.3258427 15.6504494,8.3258427 16.6474157,8.3258427 C16.6474157,8.82325843 16.6474157,9.32280899 16.6474157,9.82022472 C15.6504494,9.82022472 14.655618,9.82022472 13.6586517,9.82022472 C13.6586517,9.32280899 13.6586517,8.82325843 13.6586517,8.3258427 Z" ></path>
                    <path d="M13.6586517,10.6741573 C14.655618,10.6741573 15.6504494,10.6741573 16.6474157,10.6741573 C16.6474157,11.171573 16.6474157,11.6711236 16.6474157,12.1685393 C15.6504494,12.1685393 14.655618,12.1685393 13.6586517,12.1685393 C13.6586517,11.6711236 13.6586517,11.171573 13.6586517,10.6741573 Z"></path>
                    <path d="M13.6586517,13.0224719 C14.655618,13.0224719 15.6504494,13.0224719 16.6474157,13.0224719 C16.6474157,13.5198876 16.6474157,14.0194382 16.6474157,14.5168539 C15.6504494,14.5168539 14.655618,14.5168539 13.6586517,14.5168539 C13.6586517,14.0194382 13.6586517,13.5198876 13.6586517,13.0224719 Z" ></path>
                </g>
            </g>
        </g>
    </symbol>
    
    <symbol id="filter" viewBox="0 0 11 13">
        <g stroke="none" stroke-width="1" fill-rule="evenodd" transform="translate(-794.000000, -247.000000)">
            <path d="M794.131105,248.27907 L798.016885,253.526904 L798.016885,257.322507 C798.016885,257.487533 798.097503,257.652559 798.242615,257.735072 L800.225814,259.005774 C800.306432,259.055282 800.38705,259.088287 800.483791,259.088287 C800.564409,259.088287 800.645027,259.071785 800.725645,259.022277 C800.886881,258.939764 800.967498,258.774737 800.967498,258.593209 L800.967498,253.526904 L804.853279,248.27907 C804.869402,248.262568 804.869402,248.262568 804.885526,248.246065 C805.014514,248.031531 805.030638,247.767489 804.901649,247.536452 C804.788784,247.321918 804.546931,247.173394 804.305077,247.173394 L794.679306,247.173394 C794.437453,247.173394 794.195599,247.305415 794.082734,247.536452 C793.969869,247.750986 793.969869,248.031531 794.098858,248.246065 C794.114981,248.246065 794.114981,248.262568 794.131105,248.27907 Z M803.708505,248.163552 L800.096826,253.048328 C800.032331,253.130841 800.000084,253.246359 800.000084,253.345375 L800.000084,257.685564 L798.984299,257.041962 L798.984299,253.361878 C798.984299,253.246359 798.952052,253.147343 798.887558,253.06483 L795.259755,248.163552 L803.708505,248.163552 Z" fill-rule="nonzero"></path>
        </g>
    </symbol>
    
    <symbol id="ready-made-icon" viewBox="0 0 17 21">
        <g fill="none">
            <path fill="#EAEAEA" fill-rule="evenodd" d="M1,0 L12.9521319,0 L16,0 C16.5522847,-1.01453063e-16 17,0.44771525 17,1 L17,20 C17,20.5522847 16.5522847,21 16,21 L1,21 C0.44771525,21 6.76353751e-17,20.5522847 0,20 L-2.22044605e-16,1 C-2.8967998e-16,0.44771525 0.44771525,1.01453063e-16 1,0 Z"></path>
            <path stroke="#858585" stroke-width="1" d="M1,0.5 C0.723857625,0.5 0.5,0.723857625 0.5,1 L0.5,20 C0.5,20.2761424 0.723857625,20.5 1,20.5 L16,20.5 C16.2761424,20.5 16.5,20.2761424 16.5,20 L16.5,1 C16.5,0.723857625 16.2761424,0.5 16,0.5 L1,0.5 Z"></path>
            <rect fill="#858585" x="3" y="3" width="2" height="2"></rect>
            <rect fill="#858585" x="6" y="4" width="8" height="1"></rect>
            <rect fill="#858585" x="6" y="8" width="8" height="1"></rect>
            <rect fill="#858585" x="6" y="12" width="8" height="1"></rect>
            <rect fill="#858585" x="3" y="7" width="2" height="2"></rect>
            <rect fill="#858585" x="3" y="11" width="2" height="2"></rect>
            <rect fill="#858585" x="6" y="16" width="8" height="1"></rect>
            <rect fill="#858585" x="3" y="15" width="2" height="2"></rect>
        </g>
    </symbol>

    <symbol id="sprite-item-eye" viewBox="0 0 20 12">
        <g stroke="none" stroke-width="1" fill-rule="evenodd">
            <path d="M9.59207143,3.71635714 C10.7541429,3.71635714 11.6997857,4.67742857 11.6997857,5.85707143 C11.6997857,7.03821429 10.7541429,7.99842857 9.59207143,7.99842857 C8.42978571,7.99842857 7.485,7.03821429 7.485,5.85707143 C7.485,4.67742857 8.42978571,3.71635714 9.59207143,3.71635714 Z M9.59207143,2.565 C7.79528571,2.565 6.33342857,4.04185714 6.33342857,5.85707143 C6.33342857,7.67292857 7.79528571,9.14978571 9.59207143,9.14978571 C11.3892857,9.14978571 12.8511429,7.67271429 12.8511429,5.85707143 C12.8511429,4.04164286 11.3892857,2.565 9.59207143,2.565 Z"></path>
            <path d="M9.64971429,1.32792857 C10.1944286,1.32792857 10.743,1.38728571 11.2776429,1.50364286 C12.8676429,1.84971429 14.5150714,2.71264286 16.1736429,4.06628571 C16.9855714,4.72821429 17.5868571,5.30828571 18.0657857,5.89178571 L18.1026429,5.93207143 C18.1125,5.94214286 18.1202143,5.95821429 18.1242857,5.97664286 L18.1189286,6.04328571 C18.1148571,6.05357143 18.1095,6.06257143 18.1026429,6.06964286 L18.0668571,6.10907143 C17.8879286,6.32785714 17.6839286,6.53785714 17.4934286,6.73307143 C16.3148571,7.9305 15.0649286,8.88 13.7787857,9.55457143 C12.8121429,10.059 11.9247857,10.3812857 11.0635714,10.5400714 C10.5833571,10.6277143 10.1033571,10.6718571 9.62657143,10.6718571 C9.0765,10.6718571 8.53092857,10.6133571 7.99392857,10.4959286 C6.4035,10.1498571 4.75607143,9.28757143 3.0975,7.93371429 C2.28728571,7.27371429 1.68685714,6.6945 1.20492857,6.10907143 C1.1355,6.02464286 1.1355,5.976 1.20557143,5.89092857 C1.37078571,5.68864286 1.55464286,5.49514286 1.77964286,5.26714286 C2.95457143,4.07142857 4.20407143,3.12214286 5.49342857,2.4465 C6.46135714,1.94078571 7.3485,1.6185 8.20842857,1.46164286 C8.69057143,1.37314286 9.17507143,1.32792857 9.64971429,1.32792857 Z M9.64971429,0.176571429 C9.10714286,0.176571429 8.55278571,0.227785714 8.00078571,0.328928571 C7.02835714,0.506142857 6.03321429,0.864857143 4.96028571,1.42564286 C3.56442857,2.15742857 2.2185,3.17785714 0.958071429,4.46014286 C0.712285714,4.70914286 0.507642857,4.92492857 0.313285714,5.16278571 C-0.104785714,5.66935714 -0.105214286,6.33 0.316071429,6.84128571 C0.847928571,7.48757143 1.50064286,8.11864286 2.37021429,8.82664286 C4.16957143,10.2955714 5.97942857,11.2362857 7.74857143,11.6213571 C8.3625,11.7552857 8.99442857,11.8234286 9.62614286,11.8234286 C10.1706429,11.8234286 10.7239286,11.7728571 11.2703571,11.673 C12.2468571,11.4932143 13.2411429,11.1340714 14.3112857,10.5754286 C15.7054286,9.84407143 17.0513571,8.82364286 18.3137143,7.5405 C18.5312143,7.3185 18.7405714,7.10121429 18.9366429,6.86378571 L18.9477857,6.85157143 C19.0523571,6.73885714 19.1342143,6.60835714 19.191,6.46285714 L19.2525,6.30514286 L19.2662143,6.1365 L19.2715714,6.06985714 L19.2857143,5.89821429 L19.2488571,5.72978571 C19.2008571,5.51142857 19.0973571,5.31214286 18.9490714,5.15164286 L18.9364286,5.1375 C18.4112143,4.50214286 17.7638571,3.8775 16.9013571,3.174 C15.1007143,1.70421429 13.2908571,0.763285714 11.5225714,0.378428571 C10.9058571,0.2445 10.2760714,0.176571429 9.64971429,0.176571429 Z"></path>
        </g>
    </symbol>

    <!--
    https://codepen.io/jennhi/post/using-svg-symbols-as-css-backgrounds
    http://dreamhelg.ru/2017/02/symbol-svg-sprite-detail-guide/
    -->
    
    <view id="folder-orange-view" viewBox="0 3000 20 16" />
    <view id="folder-orange-opened-view" viewBox="0 3030 24 16" />

    <view id="folder-blue-view" viewBox="0 3060 20 16" />
    <view id="folder-blue-opened-view" viewBox="0 3090 24 16" />

    <view id="document-kod-icon-view" viewBox="0 3120 24 30" />
    
    <view id="pyramid-down-view" viewBox="0 3160 9.863 4.933" />

    <view id="man-is-shit-view" viewBox="0 3200 14 14" />
    
    <view id="help-is-sht-view" viewBox="0 3300 24 21" />
    
    
    <view id="pyramid-down-brown-view" viewBox="0 3400 9.863 4.933" />
    
    <view id="pyramid-upside-down-view" viewBox="0 3500 9.863 4.933" />
       
    
    <view id="home-awesome-view" viewBox="0 4200 512 512" />
    
    <view id="new-close-view" viewBox="0 4900 21 21" />
    
    <view id="pyramid-down-0f6bac" viewBox="0 5200 21 21" />
    
    <view id="triangular-alert-view" viewBox="0 5300 21 19" />

    <view id="kod-icon-check-view" viewBox="0 5400 12 10" />
    
    <view id="excel-2013-icon-view" viewBox="0 5500 19 19" />
    
    <view id="filter-view" viewBox="0 5600 11 13" />

    <view id="document-no-text-view" viewBox="0 5700 24 30" />

    <view id="ready-made-icon-view" viewBox="0 5800 17 21" />

    <view id="view-sprite-item-eye" viewBox="0 5900 20 12" />

    <use xlink:href="#folder-orange" x="0" y="3000"></use>
    <use xlink:href="#folder-orange-opened" x="0" y="3030"></use>

    <use xlink:href="#folder-blue" x="0" y="3060"></use>
    <use xlink:href="#folder-blue-opened" x="0" y="3090"></use>

    <use xlink:href="#document-kod-icon" x="0" y="3120"></use>
    
    <use xlink:href="#pyramid-down" x="0" y="3160" fill="#fff"></use>
    
    <use xlink:href="#man-is-shit" x="0" y="3200" fill="#fff"></use>
    
    <use xlink:href="#help-is-sht" x="0" y="3300"></use>
    
    
    <use xlink:href="#pyramid-down-ty" x="0" y="3400" fill="#939090" ></use>
    
    
    <use xlink:href="#pyramid-upside-down" x="0" y="3500" fill="#fff" ></use>


    <use xlink:href="#home-awesome" x="0" y="4200" fill="#fff"></use>
    
    <use xlink:href="#new-close-icon" x="0" y="4900" stroke="#02599B"></use>
    
    <use xlink:href="#pyramid-down" x="0" y="5200" fill="#0f6bac"></use>
    
    <use xlink:href="#triangular-alert" x="0" y="5300" fill="#FFA000"></use>
    
    <use xlink:href="#kod-icon-check" x="0" y="5400" fill="#014A83"></use>

    <use xlink:href="#excel-2013-icon" x="0" y="5500" fill="#207245"></use>
    
    <use xlink:href="#filter" x="0" y="5600" fill="#444444"></use>
    
    
    <use xlink:href="#filter" x="0" y="5600" fill="#444444"></use>
    
    <use xlink:href="#document-no-text" x="0" y="5700"></use>

    <use xlink:href="#ready-made-icon" x="0" y="5800"></use>

    <use xlink:href="#sprite-item-eye" x="0" y="5900" fill="#0f6bac" />

</svg>